<svg viewBox="0 0 172 20" fill="none" xmlns="http://www.w3.org/2000/svg">
    <path d="M12.43 12.08h-8.5c.06 3.01 1.81 4.79 4.35 4.79 1.24 0 2.46-.41 3.67-1.17l1.04 2.02c-2 1.17-3.64 1.64-5.51 1.64-2.09 0-3.81-.7-5.14-1.99C.87 15.94 0 13.8 0 11.47c0-2.16.79-4.12 2.09-5.44 1.27-1.26 2.99-1.99 5.02-1.99 2.51 0 4.29 1.05 5.25 3.22.48 1.11.76 2.46.79 4.33 0 .15 0 .5-.73.5l.01-.01ZM9.8 9.42c-.14-2.05-1.02-3.3-2.71-3.3-1.84 0-2.99 1.43-3.11 4h5.84c0-.17-.03-.55-.03-.7h.01Z" fill="#fff"></path>
    <path d="M25.93 19.01v-8.36c0-1.46-.11-2.14-.45-2.75-.45-.85-1.21-1.23-2.29-1.23-1.38 0-2.43.61-2.91 1.78-.25.61-.34 1.29-.34 2.66V19h-3.75V0h3.75v6.29c1.44-1.58 2.85-2.25 4.8-2.25 2.2 0 3.81.96 4.49 2.75.34.87.42 1.66.42 3.92v8.3h-3.73.01ZM45.01 12.08h-8.5c.06 3.01 1.81 4.79 4.35 4.79 1.24 0 2.46-.41 3.67-1.17l1.04 2.02c-2 1.17-3.64 1.64-5.51 1.64-2.09 0-3.81-.7-5.14-1.99-1.47-1.43-2.34-3.57-2.34-5.9 0-2.16.79-4.12 2.09-5.44 1.27-1.26 2.99-1.99 5.03-1.99 2.51 0 4.29 1.05 5.25 3.22.48 1.11.76 2.46.79 4.33 0 .15 0 .5-.73.5v-.01Zm-2.62-2.66c-.14-2.05-1.02-3.3-2.71-3.3-1.83 0-2.99 1.43-3.11 4h5.84c0-.17-.03-.55-.03-.7h.01ZM56.44 19.01c-.25-.73-.31-.91-.34-1.96-1.5 1.84-3.16 2.31-4.52 2.31-2.23 0-4.07-1.78-4.07-4.24 0-1.81.99-3.24 2.57-4.21.9-.56 2.37-1.11 3.76-1.46.51-.12 1.83-.47 2.34-.56-.34-1.55-1.07-2.63-2.85-2.63-1.18 0-2.31.5-3.56 1.58l-1.21-1.81c1.69-1.37 3.44-1.99 5.59-1.99s3.78.64 4.74 1.99c.68.96.93 1.78.93 4.41v3.92c0 2.63.08 3.3.56 4.65h-3.95.01Zm-.25-7.92c-.48.09-.93.23-1.5.38-1.86.47-3.59 1.29-3.59 3.13 0 1.26.85 2.16 1.92 2.16 1.47 0 2.54-1.17 2.85-2.16.17-.53.37-1.31.34-2.1 0 0-.03-1.17-.03-1.4l.01-.01ZM63.62 19.01v-19h3.73v19h-3.73ZM76.03 19.36c-1.64 0-2.88-.61-3.61-1.69-.56-.85-.71-1.52-.71-3.77V6.39h-1.98V4.4h1.98V.02h3.73V4.4h3.7v1.99h-3.7v6.72c0 2.92.51 3.92 1.98 3.92.59 0 1.19-.15 1.78-.47l.65 1.87c-1.27.61-2.48.94-3.81.94l-.01-.01ZM91.6 19.01v-8.36c0-1.46-.11-2.14-.45-2.75-.45-.85-1.21-1.23-2.29-1.23-1.38 0-2.43.61-2.91 1.78-.25.61-.34 1.29-.34 2.66V19h-3.75V0h3.75v6.29c1.44-1.58 2.85-2.25 4.8-2.25 2.2 0 3.81.96 4.49 2.75.34.87.42 1.66.42 3.92v8.3H91.6Z" fill="#fff"></path>
    <path d="M102.51 19.36c-1.84 0-3.22-.5-4.69-1.69l1.21-2.05c1.16 1.02 2.03 1.46 3.02 1.46 1.18 0 2-.7 2-1.78 0-.96-.45-1.46-2.4-2.92-1.47-1.11-3.05-2.22-3.05-4.3 0-2.4 2.03-4.03 4.83-4.03a7.4 7.4 0 0 1 4.04 1.2l-1.1 1.84c-.74-.52-1.55-.82-2.37-.82-1.02 0-1.75.61-1.75 1.43 0 .76.51 1.26 1.95 2.37 2.88 2.16 3.61 3.1 3.61 4.91 0 2.6-2.23 4.38-5.31 4.38h.01ZM120.22 19.01v-1.96c-1.41 1.61-2.85 2.31-4.83 2.31-2.2 0-3.78-.94-4.46-2.72-.34-.88-.42-1.73-.42-3.95v-8.3h3.73v8.36c0 1.46.11 2.13.45 2.75.45.85 1.21 1.23 2.29 1.23 1.38 0 2.37-.64 2.88-1.81.25-.61.37-1.26.37-2.66V4.4h3.73v14.61H120.22ZM127.96 19.01V4.4h3.73v14.61h-3.73ZM139.01 19.36c-1.83 0-3.22-.5-4.69-1.69l1.21-2.05c1.16 1.02 2.03 1.46 3.02 1.46 1.18 0 2-.7 2-1.78 0-.96-.45-1.46-2.4-2.92-1.47-1.11-3.05-2.22-3.05-4.3 0-2.4 2.03-4.03 4.83-4.03a7.4 7.4 0 0 1 4.04 1.2l-1.1 1.84c-.73-.52-1.55-.82-2.37-.82-1.02 0-1.75.61-1.75 1.43 0 .76.51 1.26 1.95 2.37 2.88 2.16 3.61 3.1 3.61 4.91 0 2.6-2.23 4.38-5.31 4.38h.01ZM150.7 19.36c-1.84 0-3.22-.5-4.69-1.69l1.21-2.05c1.16 1.02 2.03 1.46 3.02 1.46 1.18 0 2-.7 2-1.78 0-.96-.45-1.46-2.4-2.92-1.47-1.11-3.05-2.22-3.05-4.3 0-2.4 2.03-4.03 4.83-4.03a7.4 7.4 0 0 1 4.04 1.2l-1.1 1.84c-.73-.52-1.55-.82-2.37-.82-1.02 0-1.75.61-1.75 1.43 0 .76.51 1.26 1.95 2.37 2.88 2.16 3.62 3.1 3.62 4.91 0 2.6-2.23 4.38-5.31 4.38ZM170.38 12.08h-8.5c.06 3.01 1.81 4.79 4.35 4.79 1.24 0 2.46-.41 3.67-1.17l1.04 2.02c-2 1.17-3.64 1.64-5.5 1.64-2.09 0-3.81-.7-5.14-1.99-1.47-1.43-2.35-3.57-2.35-5.9 0-2.16.79-4.12 2.09-5.44 1.27-1.26 2.99-1.99 5.03-1.99 2.51 0 4.29 1.05 5.25 3.22.48 1.11.76 2.46.79 4.33 0 .15 0 .5-.73.5v-.01Zm-2.62-2.66c-.14-2.05-1.02-3.3-2.71-3.3-1.83 0-2.99 1.43-3.11 4h5.85c0-.17-.03-.55-.03-.7Z" fill="#fff"></path>
</svg>
